<svg xmlns="http://www.w3.org/2000/svg" viewBox="0 0 80 80">
  <path d="M14 18c9-4 18-4 26 1 8-5 17-5 26-1v48c-9-4-18-4-26 1-8-5-17-5-26-1z" fill="#fff8e6" stroke="#745633" stroke-width="3" stroke-linejoin="round"/>
  <path d="M40 19v48M22 31h12M22 42h12M47 31h12M47 42h12" stroke="#c4a77c" stroke-width="3" stroke-linecap="round"/>
  <circle cx="53" cy="54" r="8" fill="none" stroke="#4f88b8" stroke-width="4"/>
  <path d="M59 60l7 7" stroke="#4f88b8" stroke-width="4" stroke-linecap="round"/>
  <circle cx="31" cy="54" r="3" fill="#3b2b1b"/><circle cx="45" cy="54" r="3" fill="#3b2b1b"/>
  <path d="M34 61c3-2 6-2 9 0" fill="none" stroke="#9b332c" stroke-width="3" stroke-linecap="round"/>
</svg>
