<svg xmlns="http://www.w3.org/2000/svg" viewBox="0 0 80 80">
  <rect x="13" y="9" width="54" height="62" rx="7" fill="#fffdf4" stroke="#8b5a3c" stroke-width="3"/>
  <path d="M22 20h36M22 31h36M22 42h36M22 53h36M31 14v45M49 14v45" stroke="#f2b6aa" stroke-width="2"/>
  <path d="M26 25c8 1 17-1 27-5M39 22c-5 8-8 16-9 26M33 39c7 1 13-1 19-4" fill="none" stroke="#6b4735" stroke-width="4" stroke-linecap="round"/>
  <circle cx="32" cy="55" r="3" fill="#3b2b1b"/><circle cx="48" cy="55" r="3" fill="#3b2b1b"/>
  <path d="M35 62c3-2 7-2 10 0" fill="none" stroke="#9b332c" stroke-width="3" stroke-linecap="round"/>
  <path d="M11 48c-6 1-6 9 0 10M69 48c6 1 6 9 0 10" fill="none" stroke="#8b5a3c" stroke-width="4" stroke-linecap="round"/>
</svg>
