<svg xmlns="http://www.w3.org/2000/svg" viewBox="0 0 80 80">
  <path d="M18 10h44c5 0 8 3 8 8v45c0 5-3 8-8 8H18c-5 0-8-3-8-8V18c0-5 3-8 8-8z" fill="#fff8e6" stroke="#8a5a25" stroke-width="3"/>
  <rect x="20" y="18" width="40" height="12" rx="4" fill="#ffd166"/>
  <circle cx="29" cy="42" r="5" fill="#f28f3b"/><circle cx="40" cy="42" r="5" fill="#6cc4a1"/><circle cx="51" cy="42" r="5" fill="#5da9e9"/>
  <path d="M25 56h30M32 51v10M48 51v10" stroke="#50708a" stroke-width="3" stroke-linecap="round"/>
  <circle cx="32" cy="34" r="3" fill="#3b2b1b"/><circle cx="48" cy="34" r="3" fill="#3b2b1b"/>
  <path d="M35 48c3 3 7 3 10 0" fill="none" stroke="#9b332c" stroke-width="3" stroke-linecap="round"/>
  <path d="M12 46c-7 1-7 10 0 11M68 46c7 1 7 10 0 11" fill="none" stroke="#8a5a25" stroke-width="4" stroke-linecap="round"/>
</svg>
