<svg xmlns="http://www.w3.org/2000/svg" viewBox="0 0 80 80">
  <rect x="12" y="13" width="56" height="54" rx="6" fill="#eef7ff" stroke="#356d9d" stroke-width="3"/>
  <path d="M22 27h10l4 18h-5l-1-4h-7l-1 4h-5l5-18zm2 10h5l-2-8z" fill="#2d78c8"/>
  <path d="M42 27h9c5 0 8 3 8 7s-3 7-8 7h-4v6h-5V27zm5 4v6h4c2 0 3-1 3-3s-1-3-3-3z" fill="#45a3df"/>
  <circle cx="31" cy="56" r="3" fill="#3b2b1b"/><circle cx="49" cy="56" r="3" fill="#3b2b1b"/>
  <path d="M36 63c3 2 6 2 9 0" fill="none" stroke="#9b332c" stroke-width="3" stroke-linecap="round"/>
</svg>
