<svg xmlns="http://www.w3.org/2000/svg" viewBox="0 0 48 48" fill="none">
  <path d="M11 22h20a3 3 0 0 1 3 3v9a6 6 0 0 1-6 6H14a6 6 0 0 1-6-6v-9a3 3 0 0 1 3-3z" fill="#4aa3df"/>
  <path d="M31 24l8-6 2 3-7 6z" fill="#4aa3df"/>
  <rect x="14" y="16" width="12" height="6" rx="3" fill="#3b8bc4"/>
  <path d="M9 22 L3 30 M13 24 L8 33 M17 24 L13 34" stroke="#7fc4ef" stroke-width="2.4" stroke-linecap="round"/>
  <circle cx="3" cy="31" r="1.8" fill="#7fc4ef"/>
  <circle cx="8" cy="34" r="1.8" fill="#7fc4ef"/>
  <circle cx="13" cy="35" r="1.8" fill="#7fc4ef"/>
</svg>
